<svg width="19" height="29" viewBox="0 0 19 29" fill="none" xmlns="http://www.w3.org/2000/svg">
<path d="M5.33203 3.02463C5.96034 4.67134 6.58865 6.31793 7.21683 7.96476C10.1726 6.11751 13.1284 4.27037 16.0841 2.42324C14.963 2.78424 13.8112 2.47929 13.2141 1.69296C12.7598 1.09469 12.7687 0.404848 12.7857 0.146459C11.8685 0.114895 10.2371 0.181023 8.41637 0.962673C6.95821 1.58867 5.94107 2.43188 5.33203 3.02463Z" fill="#CB2027"/>
<path d="M4.75122 3.63562C4.5425 4.26653 4.14182 5.76935 4.6088 7.57184C4.93097 8.8153 5.53426 9.69332 5.93088 10.1825C7.59918 8.93915 9.77576 8.70525 11.5442 9.59107C13.6138 10.6277 14.1853 12.7276 14.2695 13.0584C14.3956 13.6556 14.5058 14.2814 14.5949 14.9347C14.9639 17.6392 14.869 20.0823 14.5949 22.1343C14.3577 21.9778 14.1203 21.8216 13.8831 21.6652C13.9103 24.0243 13.9373 26.3834 13.9645 28.7424C13.6413 28.6434 11.9913 28.1015 11.1374 26.3968C10.5954 25.3152 10.6413 24.2983 10.69 23.8475C10.7036 23.358 10.7171 22.8686 10.7307 22.379C8.60866 21.4987 7.07978 20.4487 6.09352 19.6665C5.23639 18.9866 4.52311 18.4126 3.79523 17.4229C3.54115 17.0775 2.45293 15.5495 2.00545 13.2215C1.94514 12.9075 1.70889 11.6036 1.8835 9.89698C1.96201 9.12865 2.10275 7.86155 2.79868 6.3891C3.38402 5.15067 4.13535 4.24661 4.75122 3.63562Z" fill="#071B25"/>
<path d="M2.41401 6.12387C2.27901 6.03338 1.14112 7.11602 0.522507 8.65292C0.145642 9.58903 0.0630649 10.4414 0.0546875 11.0188C0.074913 10.9095 0.158091 10.5341 0.502164 10.2437C0.902964 9.90551 1.3636 9.93059 1.45803 9.93779C1.46844 9.45977 1.52349 8.76357 1.74286 7.95948C2.06036 6.79571 2.50879 6.18736 2.41401 6.12387Z" fill="#071B25"/>
<path d="M16.5485 2.02443C17.3716 1.79209 17.863 1.23438 18.0942 0.963871C17.535 0.717603 16.8164 0.460773 15.9587 0.290834C14.8518 0.0716883 13.8883 0.0716892 13.1724 0.127616C13.1903 0.287354 13.0291 1.34948 13.9756 1.90202C14.9977 2.49861 15.7604 2.24694 16.5485 2.02443Z" fill="#071B25"/>
</svg>
