<svg width="211" height="335" viewBox="0 0 211 335" fill="none" xmlns="http://www.w3.org/2000/svg">
<g opacity="0.06">
<path d="M61.803 34.6163C69.1491 53.9789 76.4953 73.3402 83.84 92.7042C118.399 70.9835 152.958 49.2642 187.516 27.5449C174.407 31.7897 160.941 28.2039 153.96 18.9579C148.648 11.9233 148.752 3.81186 148.951 0.773612C138.227 0.402475 119.153 1.18003 97.8648 10.371C80.8162 17.7316 68.9238 27.6465 61.803 34.6163Z" fill="white"/>
<path d="M54.6812 41.436C52.2376 48.8131 47.5465 66.3849 53.0138 87.4607C56.7857 102 63.849 112.266 68.4924 117.986C88.0245 103.448 113.507 100.713 134.212 111.071C158.442 123.192 165.133 147.745 166.119 151.613C167.595 158.596 168.885 165.914 169.929 173.552C174.249 205.174 173.138 233.741 169.929 257.734C167.152 255.904 164.372 254.077 161.595 252.249C161.913 279.833 162.23 307.417 162.548 335C158.765 333.842 139.447 327.506 129.45 307.574C123.104 294.927 123.64 283.037 124.211 277.766C124.37 272.042 124.529 266.319 124.687 260.595C99.8432 250.302 81.9435 238.025 70.3966 228.879C60.3615 220.929 52.0106 214.217 43.4888 202.646C40.5141 198.607 27.7735 180.741 22.5345 153.52C21.8284 149.849 19.0625 134.602 21.1067 114.648C22.0259 105.664 23.6737 90.8482 31.8214 73.6314C38.6744 59.151 47.4709 48.5801 54.6812 41.436Z" fill="white"/>
<path d="M27.2411 70.2925C25.6824 69.229 12.5441 81.9528 5.40151 100.015C1.05017 111.017 0.096727 121.034 0 127.82C0.233527 126.536 1.19391 122.124 5.16662 118.711C9.79432 114.736 15.1129 115.031 16.2032 115.116C16.3234 109.498 16.959 101.316 19.4919 91.8655C23.1578 78.1882 28.3355 71.0386 27.2411 70.2925Z" fill="white"/>
<path d="M192.828 22.4035C202.341 19.7037 208.02 13.2233 210.692 10.0801C204.229 7.21849 195.924 4.23421 186.012 2.25956C173.219 -0.286846 162.084 -0.286836 153.81 0.363013C154.018 2.21913 152.155 14.5607 163.094 20.9811C174.905 27.9133 183.72 24.9889 192.828 22.4035Z" fill="white"/>
</g>
</svg>
