<svg width="32" height="32" viewBox="0 0 32 32" fill="none" xmlns="http://www.w3.org/2000/svg">
<circle cx="16" cy="16" r="16" fill="white"/>
<path d="M16.1872 8.04464C18.7396 8.04464 19.042 8.0544 20.0499 8.10039C20.982 8.14289 21.4881 8.29861 21.825 8.42952C22.2712 8.60294 22.5896 8.81008 22.9241 9.14457C23.2586 9.47909 23.4658 9.79753 23.6392 10.2437C23.7701 10.5806 23.9258 11.0867 23.9683 12.0187C24.0143 13.0267 24.0241 13.3291 24.0241 15.8815C24.0241 18.4339 24.0143 18.7363 23.9683 19.7442C23.9258 20.6762 23.7701 21.1824 23.6392 21.5192C23.4658 21.9654 23.2586 22.2839 22.9241 22.6184C22.5896 22.9529 22.2712 23.16 21.825 23.3334C21.4881 23.4644 20.982 23.6201 20.0499 23.6626C19.0421 23.7086 18.7398 23.7183 16.1872 23.7183C13.6346 23.7183 13.3323 23.7086 12.3244 23.6626C11.3924 23.6201 10.8863 23.4644 10.5494 23.3334C10.1032 23.16 9.78477 22.9529 9.45028 22.6184C9.11579 22.2839 8.90861 21.9654 8.7352 21.5192C8.60428 21.1824 8.44856 20.6762 8.40606 19.7442C8.36007 18.7363 8.35031 18.4339 8.35031 15.8815C8.35031 13.3291 8.36007 13.0267 8.40606 12.0187C8.44856 11.0867 8.60428 10.5806 8.7352 10.2437C8.90861 9.79753 9.11575 9.47909 9.45028 9.14461C9.78477 8.81008 10.1032 8.60294 10.5494 8.42952C10.8863 8.29861 11.3924 8.14289 12.3244 8.10039C13.3324 8.0544 13.6348 8.04464 16.1872 8.04464ZM16.1872 6.32227C13.591 6.32227 13.2655 6.33327 12.2459 6.37979C11.2284 6.4262 10.5335 6.58781 9.92551 6.82409C9.2969 7.06839 8.76381 7.39525 8.23234 7.92667C7.70092 8.45814 7.37405 8.99123 7.1298 9.61983C6.89347 10.2279 6.73186 10.9228 6.68546 11.9402C6.63893 12.9598 6.62793 13.2854 6.62793 15.8815C6.62793 18.4776 6.63893 18.8032 6.68546 19.8227C6.73186 20.8402 6.89347 21.5351 7.1298 22.1431C7.37405 22.7717 7.70092 23.3048 8.23234 23.8363C8.76381 24.3677 9.2969 24.6946 9.92551 24.9388C10.5335 25.1752 11.2284 25.3368 12.2459 25.3832C13.2655 25.4297 13.591 25.4407 16.1872 25.4407C18.7833 25.4407 19.1089 25.4297 20.1285 25.3832C21.1459 25.3368 21.8408 25.1752 22.4489 24.9388C23.0775 24.6946 23.6106 24.3677 24.142 23.8363C24.6735 23.3048 25.0003 22.7717 25.2446 22.1431C25.4809 21.5351 25.6425 20.8402 25.6889 19.8227C25.7354 18.8032 25.7464 18.4776 25.7464 15.8815C25.7464 13.2854 25.7354 12.9598 25.6889 11.9402C25.6425 10.9228 25.4809 10.2279 25.2446 9.61983C25.0003 8.99123 24.6735 8.45814 24.142 7.92667C23.6106 7.39525 23.0775 7.06839 22.4489 6.82409C21.8408 6.58781 21.1459 6.4262 20.1285 6.37979C19.1089 6.33327 18.7833 6.32227 16.1872 6.32227Z" fill="#CD2128"/>
<path d="M16.1918 10.9771C13.4807 10.9771 11.283 13.1748 11.283 15.8858C11.283 18.5969 13.4807 20.7946 16.1918 20.7946C18.9028 20.7946 21.1006 18.5969 21.1006 15.8858C21.1006 13.1748 18.9028 10.9771 16.1918 10.9771ZM16.1918 19.0722C14.4319 19.0722 13.0053 17.6457 13.0053 15.8858C13.0053 14.126 14.4319 12.6994 16.1918 12.6994C17.9516 12.6994 19.3782 14.126 19.3782 15.8858C19.3782 17.6457 17.9516 19.0722 16.1918 19.0722Z" fill="#CD2128"/>
<path d="M22.4412 10.7803C22.4412 11.4138 21.9276 11.9274 21.2941 11.9274C20.6606 11.9274 20.147 11.4138 20.147 10.7803C20.147 10.1468 20.6606 9.63318 21.2941 9.63318C21.9276 9.63318 22.4412 10.1468 22.4412 10.7803Z" fill="#CD2128"/>
</svg>
