<svg width="81" height="64" viewBox="0 0 81 64" fill="none" xmlns="http://www.w3.org/2000/svg">
<path d="M34.332 12.0246C34.9603 13.6713 35.5886 15.3179 36.2168 16.9648C39.1726 15.1175 42.1284 13.2704 45.0841 11.4232C43.963 11.7842 42.8112 11.4793 42.2141 10.693C41.7598 10.0947 41.7687 9.40485 41.7857 9.14646C40.8685 9.11489 39.2371 9.18102 37.4164 9.96267C35.9582 10.5887 34.9411 11.4319 34.332 12.0246Z" fill="#CB2027"/>
<path d="M33.7512 12.6356C33.5425 13.2665 33.1418 14.7693 33.6088 16.5718C33.931 17.8153 34.5343 18.6933 34.9309 19.1825C36.5992 17.9392 38.7758 17.7052 40.5442 18.5911C42.6138 19.6277 43.1853 21.7276 43.2695 22.0584C43.3956 22.6556 43.5058 23.2814 43.5949 23.9347C43.9639 26.6392 43.869 29.0823 43.5949 31.1343C43.3577 30.9778 43.1203 30.8216 42.8831 30.6652C42.9103 33.0243 42.9373 35.3834 42.9645 37.7424C42.6413 37.6434 40.9913 37.1015 40.1374 35.3968C39.5954 34.3152 39.6413 33.2983 39.69 32.8475C39.7036 32.358 39.7171 31.8686 39.7307 31.379C37.6087 30.4987 36.0798 29.4487 35.0935 28.6665C34.2364 27.9866 33.5231 27.4126 32.7952 26.4229C32.5412 26.0775 31.4529 24.5495 31.0055 22.2215C30.9451 21.9075 30.7089 20.6036 30.8835 18.897C30.962 18.1287 31.1028 16.8615 31.7987 15.3891C32.384 14.1507 33.1354 13.2466 33.7512 12.6356Z" fill="#071B25"/>
<path d="M31.414 15.1239C31.279 15.0334 30.1411 16.116 29.5225 17.6529C29.1456 18.589 29.0631 19.4414 29.0547 20.0188C29.0749 19.9095 29.1581 19.5341 29.5022 19.2437C29.903 18.9055 30.3636 18.9306 30.458 18.9378C30.4684 18.4598 30.5235 17.7636 30.7429 16.9595C31.0604 15.7957 31.5088 15.1874 31.414 15.1239Z" fill="#071B25"/>
<path d="M45.5485 11.0244C46.3716 10.7921 46.863 10.2344 47.0942 9.96387C46.535 9.7176 45.8164 9.46077 44.9587 9.29083C43.8518 9.07169 42.8883 9.07169 42.1724 9.12762C42.1903 9.28735 42.0291 10.3495 42.9756 10.902C43.9977 11.4986 44.7604 11.2469 45.5485 11.0244Z" fill="#071B25"/>
<path d="M4.99503 56.6044H0.863281V38.4472H4.99503V56.6044ZM8.89939 44.7319C8.97515 44.5208 9.09937 44.3286 9.27207 44.1553C9.44464 43.9823 9.64055 43.8323 9.85968 43.7055C10.0786 43.5788 10.3146 43.4795 10.5672 43.4078C10.8199 43.3361 11.0683 43.3 11.3127 43.3H14.0798L11.0221 49.2046C10.9546 49.2892 10.881 49.3651 10.8009 49.4327C10.7209 49.5004 10.6431 49.5574 10.5672 49.6037C10.4913 49.6503 10.4219 49.6861 10.3587 49.7115C10.2957 49.7367 10.2555 49.7495 10.2387 49.7495C10.2555 49.7495 10.2934 49.7621 10.3525 49.7875C10.4112 49.8128 10.4807 49.8488 10.5609 49.8952C10.6408 49.9417 10.7209 49.9988 10.8009 50.0663C10.881 50.1339 10.9546 50.21 11.0221 50.2943L14.3957 56.6044H11.6285C11.0727 56.6044 10.5799 56.4925 10.1503 56.2685C9.72062 56.0449 9.40036 55.6794 9.18997 55.1726L6.66297 50.535C6.62073 50.4421 6.55335 50.3494 6.46072 50.2562C6.36797 50.1634 6.27534 50.0789 6.18283 50.0029C6.0732 49.91 5.95532 49.8255 5.82906 49.7495C5.95532 49.6905 6.0732 49.6186 6.18283 49.534C6.27534 49.4665 6.36797 49.3841 6.46072 49.287C6.55335 49.19 6.62073 49.0823 6.66297 48.9639L8.89939 44.7319Z" fill="#CB2027"/>
<path d="M16.3281 39.6889C16.3281 39.3595 16.3932 39.0618 16.5239 38.7957C16.6544 38.5296 16.8291 38.3036 17.0482 38.1178C17.2672 37.932 17.5262 37.7884 17.8254 37.687C18.1242 37.5857 18.4423 37.5349 18.7794 37.5349C19.1161 37.5349 19.4341 37.5857 19.7332 37.687C20.0321 37.7884 20.2911 37.932 20.5104 38.1178C20.7293 38.3036 20.904 38.5296 21.0347 38.7957C21.1651 39.0618 21.2306 39.3595 21.2306 39.6889C21.2306 40.0184 21.1651 40.3162 21.0347 40.5823C20.904 40.8483 20.7293 41.0745 20.5104 41.2601C20.2911 41.446 20.0321 41.5896 19.7332 41.691C19.4341 41.7923 19.1161 41.8429 18.7794 41.8429C18.4423 41.8429 18.1242 41.7923 17.8254 41.691C17.5262 41.5896 17.2672 41.446 17.0482 41.2601C16.8291 41.0745 16.6544 40.8483 16.5239 40.5823C16.3932 40.3162 16.3281 40.0184 16.3281 39.6889ZM20.8515 56.6044H16.7071V43.3001H20.8515V56.6044Z" fill="#CB2027"/>
<path d="M25.1115 45.8595C25.2545 45.6402 25.4103 45.4205 25.579 45.2008C25.7221 45.015 25.8863 44.8249 26.0718 44.6306C26.2569 44.4364 26.4549 44.2676 26.6656 44.1237C27.171 43.7943 27.7144 43.543 28.2955 43.3697C28.8768 43.1968 29.5253 43.1101 30.2414 43.1101C31.0583 43.1101 31.7659 43.1987 32.3641 43.3762C32.9621 43.5535 33.4675 43.8007 33.8803 44.1174C34.2929 44.4343 34.6278 44.8101 34.8849 45.2451C35.1417 45.6802 35.3398 46.1511 35.4787 46.6579C35.6177 47.1647 35.7124 47.699 35.7629 48.2608C35.8136 48.8226 35.8388 49.3906 35.8388 49.965V56.6044H32.5662C32.4905 56.5031 32.4273 56.3891 32.3768 56.2622C32.3344 56.1527 32.2924 56.0238 32.2504 55.8758C32.2082 55.7282 32.1872 55.557 32.1872 55.3627C31.9428 55.6499 31.6837 55.8866 31.4101 56.0722C31.1363 56.2581 30.8668 56.4038 30.6015 56.5093C30.3362 56.6148 30.0791 56.6888 29.8306 56.7311C29.5822 56.7734 29.361 56.7945 29.1674 56.7945C28.4599 56.7945 27.7984 56.6888 27.1837 56.4777C26.5686 56.2667 26.0339 55.9689 25.579 55.5844C25.1241 55.2001 24.766 54.7377 24.505 54.1969C24.2437 53.6565 24.1133 53.0567 24.1133 52.3977C24.1133 50.928 24.667 49.83 25.7748 49.1033C26.8824 48.377 28.4934 48.0136 30.6078 48.0136C30.8015 48.0136 30.9658 48.0286 31.1005 48.058C31.2353 48.0877 31.3448 48.1194 31.4291 48.1531C31.5217 48.1954 31.6016 48.2417 31.6691 48.2925C31.6523 47.7266 31.5048 47.2641 31.2269 46.905C30.949 46.546 30.5781 46.3665 30.115 46.3665C29.9044 46.3665 29.7063 46.4045 29.5212 46.4805C29.3358 46.5565 29.1504 46.6389 28.9651 46.7275C28.7799 46.8163 28.5925 46.8986 28.403 46.9746C28.2134 47.0507 28.005 47.0887 27.7775 47.0887C27.4996 47.0887 27.2236 47.0316 26.9499 46.9176C26.6761 46.8036 26.4211 46.6748 26.1855 46.5313L25.1115 45.8595ZM29.1926 53.3353C29.5633 53.3353 29.9654 53.2806 30.3994 53.1707C30.8331 53.061 31.2689 52.8962 31.7071 52.6765V50.6998C31.5638 50.683 31.3995 50.6703 31.2144 50.6618C31.0289 50.6535 30.8142 50.6492 30.5699 50.6492C30.2414 50.6492 29.9234 50.6809 29.6159 50.7441C29.3084 50.8075 29.0347 50.9006 28.7946 51.023C28.5546 51.1454 28.3629 51.2911 28.2198 51.46C28.0764 51.6292 28.005 51.8149 28.005 52.0176C28.005 52.1696 28.0322 52.324 28.0871 52.4801C28.1418 52.6365 28.2198 52.7779 28.3208 52.9046C28.4219 53.0313 28.546 53.1348 28.6935 53.215C28.8409 53.2954 29.0073 53.3353 29.1926 53.3353Z" fill="#CB2027"/>
<path d="M39.6339 52.1529C39.8276 52.0515 40.0339 51.9691 40.253 51.9058C40.472 51.8424 40.7036 51.8107 40.9481 51.8107C41.2343 51.8107 41.5081 51.9058 41.7693 52.0959C42.0302 52.286 42.3209 52.4866 42.6412 52.6977C42.717 52.7484 42.8117 52.7886 42.9254 52.8181C43.0391 52.8477 43.1465 52.8624 43.2476 52.8624C43.3487 52.8624 43.4497 52.8434 43.5509 52.8054C43.652 52.7673 43.7423 52.7167 43.8225 52.6533C43.9025 52.5901 43.9699 52.512 44.0247 52.4189C44.0795 52.3262 44.1069 52.2288 44.1069 52.1274V52.0642C44.0984 51.9798 44.073 51.9016 44.031 51.8298C43.9888 51.758 43.9173 51.6905 43.8163 51.6271C43.7152 51.5636 43.5803 51.4962 43.4119 51.4244C43.2433 51.3525 43.0328 51.2703 42.7801 51.1773C42.3 51.0084 41.8262 50.8162 41.3586 50.6007C40.8911 50.3853 40.4742 50.115 40.1079 49.7898C39.7414 49.4648 39.4445 49.0739 39.217 48.6177C38.9896 48.1615 38.8758 47.6084 38.8758 46.958C38.8758 46.3836 39.0042 45.8491 39.2613 45.3549C39.5181 44.8608 39.8593 44.4321 40.2846 44.0689C40.71 43.7058 41.1923 43.4208 41.7314 43.2136C42.2703 43.0067 42.8221 42.9032 43.3867 42.9032C43.7657 42.9032 44.1341 42.9561 44.4922 43.0617C44.8502 43.1673 45.1851 43.3003 45.4967 43.4608C45.8082 43.6213 46.0969 43.7987 46.3622 43.9929C46.6275 44.1873 46.8591 44.3711 47.0572 44.5441C47.255 44.7174 47.415 44.8734 47.5373 45.0129C47.6593 45.1522 47.7373 45.2432 47.7711 45.2853L46.836 46.2864C46.5916 46.4891 46.3642 46.6454 46.1537 46.7551C45.9431 46.8649 45.7071 46.9199 45.4462 46.9199C45.2608 46.9199 45.1134 46.8967 45.0039 46.8502C44.8944 46.8039 44.7807 46.7531 44.6628 46.6981C44.5448 46.6433 44.4079 46.5926 44.2522 46.5461C44.0962 46.4997 43.8795 46.4765 43.6014 46.4765C43.3824 46.4765 43.2034 46.544 43.0645 46.6792C42.9254 46.8143 42.8559 46.9706 42.8559 47.1479C42.8559 47.2409 42.8686 47.3275 42.8938 47.4076C42.9191 47.4881 42.9696 47.5493 43.0453 47.5914C43.1718 47.6674 43.2876 47.7245 43.3929 47.7625C43.4982 47.8004 43.6119 47.8343 43.7341 47.8638C43.856 47.8935 43.9994 47.9295 44.1637 47.9715C44.3279 48.0138 44.5321 48.0729 44.7765 48.1488C45.2566 48.301 45.703 48.4656 46.1158 48.6431C46.5284 48.8206 46.8866 49.0466 47.1898 49.3209C47.493 49.5956 47.7308 49.9419 47.9037 50.36C48.0762 50.7781 48.1628 51.3039 48.1628 51.9374C48.1628 52.5542 48.0427 53.1412 47.8026 53.6988C47.5625 54.2562 47.2234 54.7441 46.7855 55.1622C46.3474 55.5803 45.8273 55.9141 45.225 56.1631C44.6227 56.4123 43.9635 56.537 43.2476 56.537C42.7591 56.537 42.2747 56.4524 41.7946 56.2835C41.3144 56.1146 40.8552 55.8739 40.4173 55.5613C39.9793 55.2489 39.5728 54.8665 39.1981 54.4145C38.8231 53.9628 38.4968 53.4538 38.2188 52.8877L39.6339 52.1529Z" fill="#CB2027"/>
<path d="M56.6461 47.2661C56.3006 47.2661 55.9658 47.3316 55.6416 47.4626C55.3173 47.5935 55.0267 47.7793 54.7698 48.02C54.5128 48.2608 54.3065 48.5458 54.1508 48.8752C53.9948 49.2047 53.917 49.5638 53.917 49.9524C53.917 50.3495 53.9948 50.7125 54.1508 51.042C54.3065 51.3714 54.5128 51.6545 54.7698 51.891C55.0267 52.1275 55.3173 52.3134 55.6416 52.4484C55.9658 52.5836 56.3006 52.6511 56.6461 52.6511C56.8988 52.6511 57.1305 52.6196 57.341 52.5562C57.5515 52.4927 57.7601 52.4231 57.9666 52.347C58.1729 52.271 58.3877 52.2014 58.6109 52.1381C58.834 52.0746 59.0848 52.0429 59.3627 52.0429C59.7501 52.0429 60.0956 52.1211 60.3989 52.2774C60.7021 52.4338 60.98 52.6384 61.2328 52.892L62.2688 53.9436C61.8646 54.3743 61.439 54.7671 60.9926 55.122C60.5462 55.4767 60.0829 55.7766 59.6028 56.0216C59.1226 56.2667 58.634 56.4568 58.1371 56.5918C57.6399 56.7268 57.143 56.7945 56.6461 56.7945C55.7027 56.7945 54.816 56.6148 53.9864 56.256C53.1566 55.897 52.4301 55.407 51.8069 54.7862C51.1833 54.1653 50.6906 53.4389 50.3285 52.6067C49.9662 51.7749 49.7852 50.8899 49.7852 49.9524C49.7852 49.0146 49.9662 48.1298 50.3285 47.2978C50.6906 46.4658 51.1833 45.7393 51.8069 45.1185C52.4301 44.4976 53.1566 44.0077 53.9864 43.6485C54.816 43.2897 55.7027 43.1101 56.6461 43.1101C57.143 43.1101 57.6399 43.1777 58.1371 43.3128C58.634 43.448 59.1226 43.6381 59.6028 43.883C60.0829 44.1282 60.5462 44.4279 60.9926 44.7827C61.439 45.1374 61.8646 45.5302 62.2688 45.9609L61.2328 47.0254C60.7188 47.5575 60.0745 47.8236 59.2995 47.8236C59.0384 47.8236 58.7921 47.794 58.5604 47.7349C58.3286 47.6758 58.1075 47.6126 57.897 47.5448C57.6864 47.4773 57.4779 47.414 57.2716 47.3547C57.065 47.2957 56.8567 47.2661 56.6461 47.2661Z" fill="#CB2027"/>
<path d="M63.293 49.9523C63.293 49.0146 63.4719 48.1299 63.83 47.2978C64.1879 46.4658 64.6767 45.7393 65.2957 45.1184C65.9149 44.4975 66.6393 44.0077 67.469 43.6486C68.2985 43.2896 69.181 43.1101 70.116 43.1101C71.0511 43.1101 71.9333 43.2896 72.7631 43.6486C73.5928 44.0077 74.3173 44.4975 74.9364 45.1184C75.5555 45.7393 76.044 46.4658 76.4021 47.2978C76.7599 48.1299 76.9391 49.0146 76.9391 49.9523C76.9391 50.8899 76.7599 51.7749 76.4021 52.6068C76.044 53.4389 75.5555 54.1652 74.9364 54.7861C74.3173 55.407 73.5928 55.897 72.7631 56.256C71.9333 56.6149 71.0511 56.7945 70.116 56.7945C69.181 56.7945 68.2985 56.6149 67.469 56.256C66.6393 55.897 65.9149 55.407 65.2957 54.7861C64.6767 54.1652 64.1879 53.4389 63.83 52.6068C63.4719 51.7749 63.293 50.8899 63.293 49.9523ZM67.4374 49.9649C67.4374 50.3282 67.5069 50.6725 67.6459 50.9975C67.7848 51.3229 67.9743 51.6058 68.2145 51.8465C68.4545 52.0873 68.7366 52.2774 69.0611 52.4167C69.3852 52.5562 69.7284 52.6258 70.0908 52.6258C70.4528 52.6258 70.7962 52.5562 71.1205 52.4167C71.4447 52.2774 71.7289 52.0873 71.9734 51.8465C72.2177 51.6058 72.4094 51.3229 72.5484 50.9975C72.6873 50.6725 72.7568 50.3282 72.7568 49.9649C72.7568 49.6018 72.6873 49.2576 72.5484 48.9323C72.4094 48.6072 72.2177 48.3221 71.9734 48.077C71.7289 47.8321 71.4447 47.6398 71.1205 47.5006C70.7962 47.3611 70.4528 47.2914 70.0908 47.2914C69.7284 47.2914 69.3852 47.3611 69.0611 47.5006C68.7366 47.6398 68.4545 47.8321 68.2145 48.077C67.9743 48.3221 67.7848 48.6072 67.6459 48.9323C67.5069 49.2576 67.4374 49.6018 67.4374 49.9649Z" fill="#CB2027"/>
<path d="M74.615 61.3635H75.0248V58.0095H74.615V61.3635ZM68.5611 59.9657C68.3319 59.9947 68.1468 60.0715 68.0056 60.1962C67.8645 60.3207 67.7939 60.4964 67.7939 60.7229C67.7939 60.9297 67.8655 61.1018 68.009 61.2393C68.1525 61.377 68.3373 61.4458 68.5634 61.4458C68.7516 61.4458 68.924 61.4054 69.0803 61.3248C69.2366 61.2441 69.3565 61.1491 69.44 61.0394C69.4537 61.1368 69.4771 61.2122 69.5106 61.2654C69.5743 61.3658 69.6768 61.4161 69.818 61.4161C69.8756 61.4161 69.9211 61.4138 69.9545 61.4093C69.9879 61.4047 70.0365 61.3933 70.1003 61.3749V61.0713C70.0744 61.0759 70.0501 61.0794 70.0274 61.0816C70.0047 61.0839 69.9842 61.085 69.966 61.085C69.9098 61.085 69.8729 61.0722 69.8555 61.0462C69.8381 61.0204 69.8293 60.9862 69.8293 60.9436V59.5348C69.8293 59.3034 69.7406 59.1329 69.5633 59.0233C69.3844 58.9137 69.1516 58.8589 68.8651 58.8589C68.618 58.8589 68.4009 58.918 68.2136 59.0364C68.0264 59.1547 67.929 59.365 67.9214 59.6672H68.3039C68.319 59.5402 68.3516 59.4446 68.4016 59.3803C68.491 59.2641 68.6425 59.2059 68.856 59.2059C69.0408 59.2059 69.1828 59.2376 69.282 59.3011C69.3813 59.3645 69.4309 59.4665 69.4309 59.607C69.4309 59.6758 69.4218 59.7285 69.4036 59.7652C69.3717 59.832 69.3087 59.8715 69.2147 59.8837L68.5611 59.9657ZM68.2219 60.7138C68.2219 60.5574 68.2852 60.4434 68.412 60.3721C68.4868 60.3295 68.5984 60.2984 68.747 60.2786L68.9946 60.2467C69.0703 60.2376 69.1477 60.2223 69.2264 60.201C69.3051 60.1796 69.3695 60.1528 69.4196 60.1208V60.4513C69.4196 60.7036 69.3056 60.8852 69.078 60.9962C68.9429 61.063 68.8032 61.0964 68.659 61.0964C68.5406 61.0964 68.4382 61.0623 68.3517 60.9939C68.2651 60.9256 68.2219 60.8322 68.2219 60.7138ZM61.2118 61.3635H61.6216V60.0828C61.6216 59.9229 61.6319 59.8 61.6524 59.714C61.6728 59.628 61.7172 59.5446 61.7856 59.464C61.8705 59.3635 61.9693 59.2965 62.0815 59.2631C62.1438 59.2433 62.2235 59.2333 62.3206 59.2333C62.5119 59.2333 62.6439 59.3095 62.7168 59.4617C62.7608 59.553 62.7828 59.6733 62.7828 59.8225V61.3635H63.1994V59.795C63.1994 59.5485 63.166 59.359 63.0993 59.2265C62.9778 58.9845 62.7441 58.8634 62.3981 58.8634C62.2401 58.8634 62.0967 58.8947 61.9677 58.957C61.8387 59.0196 61.7165 59.1223 61.6011 59.2653V58.9183H61.2118V61.3635ZM55.4914 58.8475C55.1432 58.8475 54.8659 58.9692 54.6594 59.2125C54.4529 59.4558 54.3498 59.7827 54.3498 60.1934C54.3498 60.5766 54.4477 60.8819 54.6436 61.1094C54.8396 61.3367 55.1041 61.4503 55.4371 61.4503C55.8365 61.4503 56.1313 61.3218 56.3211 61.0648C56.511 60.8079 56.606 60.4824 56.606 60.0884C56.606 59.681 56.4982 59.3722 56.2827 59.1624C56.0671 58.9525 55.8034 58.8475 55.4914 58.8475ZM55.4756 61.0964C55.2309 61.0964 55.0523 61.0097 54.9398 60.8364C54.8271 60.6631 54.7709 60.4465 54.7709 60.1866C54.7709 59.9159 54.8271 59.6849 54.9398 59.4934C55.0523 59.3017 55.2324 59.2059 55.4801 59.2059C55.7592 59.2059 55.9558 59.3185 56.0699 59.5434C56.1419 59.6864 56.1779 59.8719 56.1779 60.0999C56.1779 60.3523 56.128 60.5815 56.0282 60.7875C55.9284 60.9934 55.7442 61.0964 55.4756 61.0964ZM49.3774 58.4753H49.794V58.0095H49.3774V58.4753ZM49.3774 61.3635H49.794V58.9297H49.3774V61.3635ZM44.0598 58.9183H43.7296V59.2539H44.0598V60.8727C44.0598 61.0294 44.0939 61.157 44.1622 61.2552C44.2305 61.3533 44.3603 61.4024 44.5515 61.4024C44.6108 61.4024 44.6657 61.3993 44.7165 61.3933C44.7674 61.3872 44.8164 61.3772 44.8635 61.3635V61.0371C44.8331 61.0412 44.8065 61.0437 44.7838 61.0447C44.7609 61.0458 44.7398 61.0462 44.72 61.0462C44.6456 61.0462 44.5926 61.0378 44.5606 61.0211C44.5029 60.9922 44.4741 60.9351 44.4741 60.8499V59.2539H44.8635V58.9183H44.4741V58.2356H44.0598V58.9183ZM37.9354 59.9657C37.7061 59.9947 37.5209 60.0715 37.3798 60.1962C37.2386 60.3207 37.168 60.4964 37.168 60.7229C37.168 60.9297 37.2398 61.1018 37.3832 61.2393C37.5267 61.377 37.7115 61.4458 37.9376 61.4458C38.1258 61.4458 38.2981 61.4054 38.4544 61.3248C38.6107 61.2441 38.7306 61.1491 38.8142 61.0394C38.8278 61.1368 38.8514 61.2122 38.8848 61.2654C38.9484 61.3658 39.051 61.4161 39.1921 61.4161C39.2498 61.4161 39.2953 61.4138 39.3288 61.4093C39.3621 61.4047 39.4106 61.3933 39.4744 61.3749V61.0713C39.4486 61.0759 39.4244 61.0794 39.4015 61.0816C39.3788 61.0839 39.3583 61.085 39.3402 61.085C39.2839 61.085 39.2472 61.0722 39.2297 61.0462C39.2122 61.0204 39.2035 60.9862 39.2035 60.9436V59.5348C39.2035 59.3034 39.1148 59.1329 38.9374 59.0233C38.7585 58.9137 38.5257 58.8589 38.2392 58.8589C37.9922 58.8589 37.775 58.918 37.5877 59.0364C37.4005 59.1547 37.3031 59.365 37.2956 59.6672H37.6781C37.6931 59.5402 37.7257 59.4446 37.7757 59.3803C37.8651 59.2641 38.0166 59.2059 38.2303 59.2059C38.4149 59.2059 38.557 59.2376 38.6562 59.3011C38.7554 59.3645 38.8051 59.4665 38.8051 59.607C38.8051 59.6758 38.796 59.7285 38.7778 59.7652C38.746 59.832 38.6829 59.8715 38.5888 59.8837L37.9354 59.9657ZM37.5961 60.7138C37.5961 60.5574 37.6594 60.4434 37.7861 60.3721C37.8611 60.3295 37.9726 60.2984 38.1211 60.2786L38.3687 60.2467C38.4445 60.2376 38.5218 60.2223 38.6005 60.201C38.6793 60.1796 38.7437 60.1528 38.7937 60.1208V60.4513C38.7937 60.7036 38.6799 60.8852 38.4521 60.9962C38.317 61.063 38.1774 61.0964 38.0333 61.0964C37.9148 61.0964 37.8123 61.0623 37.7258 60.9939C37.6393 60.9256 37.5961 60.8322 37.5961 60.7138ZM30.586 61.3635H30.9958V60.0828C30.9958 59.9229 31.006 59.8 31.0265 59.714C31.047 59.628 31.0914 59.5446 31.1597 59.464C31.2447 59.3635 31.3434 59.2965 31.4557 59.2631C31.5179 59.2433 31.5976 59.2333 31.6948 59.2333C31.886 59.2333 32.018 59.3095 32.0909 59.4617C32.135 59.553 32.157 59.6733 32.157 59.8225V61.3635H32.5736V59.795C32.5736 59.5485 32.5402 59.359 32.4734 59.2265C32.3519 58.9845 32.1182 58.8634 31.7722 58.8634C31.6142 58.8634 31.4709 58.8947 31.3419 58.957C31.2128 59.0196 31.0907 59.1223 30.9753 59.2653V58.9183H30.586V61.3635ZM24.9413 61.3635H25.3512V59.9571C25.3512 59.7836 25.4066 59.6303 25.5174 59.4971C25.6281 59.3639 25.7868 59.2973 25.9932 59.2973C26.0174 59.2973 26.0399 59.2981 26.0604 59.2996C26.0808 59.3011 26.1032 59.3041 26.1275 59.3087V58.8749C26.0835 58.8704 26.0523 58.8673 26.0342 58.8658C26.016 58.8643 26.003 58.8634 25.9955 58.8634C25.833 58.8634 25.6896 58.9225 25.5651 59.0404C25.4407 59.1584 25.3625 59.2585 25.3307 59.3407V58.9183H24.9413V61.3635ZM18.5437 59.9457C18.5512 59.7357 18.6182 59.5625 18.7446 59.4263C18.871 59.2901 19.0275 59.2219 19.2142 59.2219C19.4745 59.2219 19.6605 59.3209 19.7718 59.5188C19.832 59.6253 19.8704 59.7676 19.8869 59.9457H18.5437ZM19.2401 58.8634C18.8992 58.8634 18.6231 58.9861 18.4119 59.231C18.2007 59.4762 18.0951 59.795 18.0951 60.1878C18.0951 60.5866 18.1999 60.8967 18.4096 61.1181C18.6193 61.3397 18.8749 61.4503 19.1766 61.4503C19.3001 61.4503 19.4108 61.4382 19.5089 61.4138C19.691 61.3712 19.844 61.289 19.9675 61.1672C20.0413 61.0972 20.1082 61.007 20.1682 60.8967C20.2281 60.7863 20.2634 60.6863 20.2741 60.5964H19.871C19.8416 60.705 19.7913 60.8006 19.7206 60.8831C19.5941 61.0253 19.4246 61.0964 19.2123 61.0964C18.9849 61.0964 18.817 61.0213 18.7086 60.8709C18.6 60.7206 18.5421 60.521 18.5346 60.2723H20.3082C20.3082 60.0256 20.2961 59.8461 20.2719 59.7334C20.2448 59.569 20.1905 59.4251 20.109 59.3018C20.0245 59.1725 19.9016 59.0671 19.7402 58.9856C19.5787 58.9042 19.412 58.8634 19.2401 58.8634ZM12.9164 58.9183H12.5862V59.2539H12.9164V60.8727C12.9164 61.0294 12.9505 61.157 13.0189 61.2552C13.0871 61.3533 13.2169 61.4024 13.4082 61.4024C13.4673 61.4024 13.5223 61.3993 13.5732 61.3933C13.6241 61.3872 13.673 61.3772 13.7201 61.3635V61.0371C13.6897 61.0412 13.6632 61.0437 13.6403 61.0447C13.6176 61.0458 13.5963 61.0462 13.5767 61.0462C13.5022 61.0462 13.4491 61.0378 13.4173 61.0211C13.3596 60.9922 13.3307 60.9351 13.3307 60.8499V59.2539H13.7201V58.9183H13.3307V58.2356H12.9164V58.9183ZM6.13848 61.3635H6.54837V60.0828C6.54837 59.9229 6.55855 59.8 6.57901 59.714C6.59959 59.628 6.644 59.5446 6.71221 59.464C6.79718 59.3635 6.89592 59.2965 7.00817 59.2631C7.07041 59.2433 7.15011 59.2333 7.24729 59.2333C7.43853 59.2333 7.57054 59.3095 7.64342 59.4617C7.68746 59.553 7.70948 59.6733 7.70948 59.8225V61.3635H8.12608V59.795C8.12608 59.5485 8.09269 59.359 8.02591 59.2265C7.90456 58.9845 7.67083 58.8634 7.32472 58.8634C7.16687 58.8634 7.02337 58.8947 6.89436 58.957C6.76535 59.0196 6.64316 59.1223 6.52779 59.2653V58.9183H6.13848V61.3635ZM1 58.4753H1.4166V58.0095H1V58.4753ZM1 61.3635H1.4166V58.9297H1V61.3635Z" fill="black"/>
<path d="M76.6289 42.86V41.4105H77.2432C77.3977 41.4105 77.5098 41.4236 77.5799 41.4496C77.6499 41.4757 77.7059 41.5219 77.748 41.5885C77.7901 41.6551 77.8111 41.7312 77.8111 41.8169C77.8111 41.9256 77.7792 42.0155 77.7155 42.0863C77.6517 42.1572 77.5564 42.2019 77.4295 42.2202C77.4926 42.2572 77.5448 42.2978 77.5858 42.3419C77.6269 42.3861 77.6823 42.4645 77.752 42.5773L77.9285 42.86H77.5794L77.3684 42.5446C77.2935 42.4318 77.2422 42.3609 77.2146 42.3315C77.187 42.3022 77.1578 42.282 77.1269 42.2712C77.096 42.2603 77.0471 42.2549 76.9799 42.2549H76.9208V42.86H76.6289ZM76.9208 42.0235H77.1367C77.2767 42.0235 77.3642 42.0176 77.399 42.0058C77.4339 41.9939 77.4611 41.9735 77.4808 41.9444C77.5005 41.9154 77.5105 41.8791 77.5105 41.8357C77.5105 41.7869 77.4974 41.7475 77.4714 41.7175C77.4455 41.6875 77.4088 41.6685 77.3616 41.6606C77.3379 41.6574 77.2669 41.6557 77.1485 41.6557H76.9208V42.0235Z" fill="#231F20"/>
<path d="M77.1814 43.6803C76.3319 43.6803 75.6406 42.9871 75.6406 42.1353C75.6406 41.2834 76.3319 40.5902 77.1814 40.5902C78.0308 40.5902 78.7221 41.2834 78.7221 42.1353C78.7221 42.9871 78.0308 43.6803 77.1814 43.6803ZM77.1814 40.8707C76.4859 40.8707 75.9203 41.438 75.9203 42.1353C75.9203 42.8327 76.4859 43.3998 77.1814 43.3998C77.8768 43.3998 78.4424 42.8327 78.4424 42.1353C78.4424 41.438 77.8768 40.8707 77.1814 40.8707Z" fill="#231F20"/>
</svg>
