<svg width="81" height="64" viewBox="0 0 81 64" fill="none" xmlns="http://www.w3.org/2000/svg">
<path d="M34.332 12.0246C34.9603 13.6713 35.5886 15.3179 36.2168 16.9648C39.1726 15.1175 42.1284 13.2704 45.0841 11.4232C43.963 11.7842 42.8112 11.4793 42.2141 10.693C41.7598 10.0947 41.7687 9.40485 41.7857 9.14646C40.8685 9.11489 39.2371 9.18102 37.4164 9.96267C35.9582 10.5887 34.9411 11.4319 34.332 12.0246Z" fill="white"/>
<path d="M33.7507 12.6356C33.542 13.2665 33.1413 14.7693 33.6083 16.5718C33.9305 17.8153 34.5338 18.6933 34.9304 19.1825C36.5987 17.9392 38.7753 17.7052 40.5437 18.5911C42.6133 19.6277 43.1848 21.7276 43.269 22.0584C43.3951 22.6556 43.5053 23.2814 43.5944 23.9347C43.9634 26.6392 43.8685 29.0823 43.5944 31.1343C43.3572 30.9778 43.1198 30.8216 42.8826 30.6652C42.9098 33.0243 42.9368 35.3834 42.964 37.7424C42.6409 37.6434 40.9909 37.1015 40.137 35.3968C39.5949 34.3152 39.6408 33.2983 39.6895 32.8475C39.7031 32.358 39.7167 31.8686 39.7302 31.379C37.6082 30.4987 36.0793 29.4487 35.093 28.6665C34.2359 27.9866 33.5226 27.4126 32.7947 26.4229C32.5407 26.0775 31.4524 24.5495 31.005 22.2215C30.9446 21.9075 30.7084 20.6036 30.883 18.897C30.9615 18.1287 31.1023 16.8615 31.7982 15.3891C32.3835 14.1507 33.1349 13.2466 33.7507 12.6356Z" fill="white"/>
<path d="M31.4116 15.1239C31.2766 15.0334 30.1387 16.116 29.5201 17.6529C29.1432 18.589 29.0606 19.4414 29.0522 20.0188C29.0725 19.9095 29.1556 19.5341 29.4997 19.2437C29.9005 18.9055 30.3612 18.9306 30.4556 18.9378C30.466 18.4598 30.521 17.7636 30.7404 16.9595C31.0579 15.7957 31.5064 15.1874 31.4116 15.1239Z" fill="white"/>
<path d="M45.5465 11.0244C46.3697 10.7921 46.861 10.2344 47.0923 9.96387C46.533 9.7176 45.8145 9.46077 44.9567 9.29083C43.8498 9.07169 42.8863 9.07169 42.1704 9.12762C42.1884 9.28735 42.0271 10.3495 42.9737 10.902C43.9957 11.4986 44.7584 11.2469 45.5465 11.0244Z" fill="white"/>
<path d="M4.99405 56.6044H0.862305V38.4473H4.99405V56.6044ZM8.89841 44.7319C8.97417 44.5208 9.09839 44.3287 9.27109 44.1554C9.44366 43.9823 9.63958 43.8323 9.85871 43.7056C10.0776 43.5788 10.3136 43.4796 10.5662 43.4078C10.8189 43.3362 11.0673 43.3 11.3117 43.3H14.0788L11.0211 49.2046C10.9536 49.2892 10.88 49.3652 10.8 49.4327C10.7199 49.5004 10.6421 49.5574 10.5662 49.6038C10.4904 49.6503 10.421 49.6861 10.3578 49.7115C10.2947 49.7367 10.2545 49.7496 10.2377 49.7496C10.2545 49.7496 10.2924 49.7622 10.3515 49.7875C10.4102 49.8128 10.4797 49.8488 10.5599 49.8953C10.6398 49.9417 10.7199 49.9988 10.8 50.0663C10.88 50.134 10.9536 50.2101 11.0211 50.2943L14.3947 56.6044H11.6275C11.0718 56.6044 10.5789 56.4926 10.1493 56.2685C9.71964 56.0449 9.39938 55.6795 9.18899 55.1726L6.662 50.5351C6.61975 50.4422 6.55237 50.3494 6.45974 50.2563C6.36699 50.1634 6.27436 50.0789 6.18185 50.0029C6.07223 49.91 5.95435 49.8255 5.82809 49.7496C5.95435 49.6905 6.07223 49.6186 6.18185 49.534C6.27436 49.4666 6.36699 49.3841 6.45974 49.287C6.55237 49.1901 6.61975 49.0823 6.662 48.964L8.89841 44.7319Z" fill="white"/>
<path d="M16.3276 39.6889C16.3276 39.3595 16.3927 39.0618 16.5234 38.7957C16.6539 38.5296 16.8286 38.3036 17.0477 38.1178C17.2667 37.932 17.5257 37.7884 17.8249 37.687C18.1238 37.5857 18.4419 37.5349 18.7789 37.5349C19.1156 37.5349 19.4336 37.5857 19.7327 37.687C20.0317 37.7884 20.2906 37.932 20.5099 38.1178C20.7288 38.3036 20.9035 38.5296 21.0342 38.7957C21.1646 39.0618 21.2301 39.3595 21.2301 39.6889C21.2301 40.0184 21.1646 40.3162 21.0342 40.5823C20.9035 40.8483 20.7288 41.0745 20.5099 41.2601C20.2906 41.446 20.0317 41.5896 19.7327 41.691C19.4336 41.7923 19.1156 41.8429 18.7789 41.8429C18.4419 41.8429 18.1238 41.7923 17.8249 41.691C17.5257 41.5896 17.2667 41.446 17.0477 41.2601C16.8286 41.0745 16.6539 40.8483 16.5234 40.5823C16.3927 40.3162 16.3276 40.0184 16.3276 39.6889ZM20.851 56.6044H16.7067V43.3001H20.851V56.6044Z" fill="white"/>
<path d="M25.1091 45.8595C25.2521 45.6401 25.4079 45.4205 25.5765 45.2008C25.7197 45.015 25.8839 44.8249 26.0694 44.6306C26.2545 44.4364 26.4525 44.2675 26.6632 44.1236C27.1686 43.7943 27.7119 43.543 28.2931 43.3697C28.8744 43.1968 29.5229 43.1101 30.2389 43.1101C31.0559 43.1101 31.7635 43.1987 32.3617 43.3762C32.9597 43.5534 33.4651 43.8007 33.8779 44.1174C34.2905 44.4342 34.6254 44.8101 34.8824 45.245C35.1393 45.6802 35.3373 46.151 35.4763 46.6578C35.6152 47.1647 35.71 47.699 35.7605 48.2607C35.8111 48.8225 35.8364 49.3906 35.8364 49.9649V56.6044H32.5638C32.488 56.5031 32.4248 56.3891 32.3743 56.2622C32.332 56.1526 32.29 56.0237 32.248 55.8758C32.2057 55.7281 32.1848 55.557 32.1848 55.3627C31.9404 55.6499 31.6813 55.8866 31.4077 56.0722C31.1339 56.2581 30.8644 56.4038 30.599 56.5093C30.3337 56.6148 30.0767 56.6887 29.8282 56.7311C29.5797 56.7733 29.3586 56.7945 29.1649 56.7945C28.4574 56.7945 27.796 56.6887 27.1813 56.4776C26.5661 56.2666 26.0314 55.9689 25.5765 55.5844C25.1216 55.2001 24.7636 54.7377 24.5025 54.1969C24.2413 53.6565 24.1108 53.0566 24.1108 52.3976C24.1108 50.9279 24.6646 49.8299 25.7723 49.1032C26.8799 48.3769 28.4909 48.0135 30.6054 48.0135C30.799 48.0135 30.9633 48.0285 31.0981 48.0579C31.2329 48.0877 31.3424 48.1194 31.4266 48.1531C31.5192 48.1953 31.5992 48.2417 31.6667 48.2924C31.6498 47.7266 31.5024 47.264 31.2245 46.905C30.9466 46.546 30.5757 46.3664 30.1126 46.3664C29.9019 46.3664 29.7039 46.4045 29.5187 46.4805C29.3333 46.5564 29.148 46.6389 28.9627 46.7275C28.7774 46.8163 28.59 46.8986 28.4006 46.9746C28.211 47.0506 28.0025 47.0887 27.775 47.0887C27.4971 47.0887 27.2211 47.0316 26.9474 46.9176C26.6736 46.8035 26.4187 46.6748 26.1831 46.5312L25.1091 45.8595ZM29.1902 53.3353C29.5608 53.3353 29.963 53.2806 30.3969 53.1706C30.8306 53.0609 31.2665 52.8962 31.7046 52.6764V50.6998C31.5614 50.683 31.3971 50.6703 31.2119 50.6617C31.0264 50.6535 30.8117 50.6491 30.5674 50.6491C30.2389 50.6491 29.9209 50.6808 29.6135 50.7441C29.3059 50.8074 29.0322 50.9006 28.7921 51.023C28.5522 51.1454 28.3605 51.2911 28.2173 51.46C28.074 51.6292 28.0025 51.8148 28.0025 52.0175C28.0025 52.1696 28.0298 52.3239 28.0846 52.4801C28.1393 52.6365 28.2173 52.7778 28.3183 52.9046C28.4195 53.0313 28.5436 53.1348 28.691 53.2149C28.8385 53.2953 29.0048 53.3353 29.1902 53.3353Z" fill="white"/>
<path d="M39.6315 52.1529C39.8251 52.0515 40.0315 51.9692 40.2506 51.9058C40.4696 51.8424 40.7012 51.8107 40.9457 51.8107C41.2318 51.8107 41.5056 51.9058 41.7669 52.0959C42.0278 52.286 42.3185 52.4867 42.6388 52.6978C42.7145 52.7484 42.8093 52.7886 42.923 52.8181C43.0367 52.8478 43.144 52.8624 43.2452 52.8624C43.3463 52.8624 43.4473 52.8435 43.5484 52.8054C43.6496 52.7674 43.7399 52.7167 43.8201 52.6534C43.9 52.5901 43.9674 52.512 44.0222 52.419C44.077 52.3262 44.1044 52.2289 44.1044 52.1275V52.0642C44.0959 51.9798 44.0706 51.9016 44.0286 51.8298C43.9863 51.7581 43.9149 51.6905 43.8139 51.6271C43.7127 51.5636 43.5779 51.4962 43.4095 51.4244C43.2409 51.3525 43.0303 51.2703 42.7777 51.1773C42.2976 51.0084 41.8237 50.8162 41.3562 50.6008C40.8887 50.3853 40.4718 50.1151 40.1054 49.7898C39.739 49.4648 39.442 49.0739 39.2145 48.6178C38.9872 48.1615 38.8733 47.6085 38.8733 46.958C38.8733 46.3836 39.0018 45.8492 39.2588 45.355C39.5156 44.8609 39.8568 44.4322 40.2822 44.0689C40.7075 43.7058 41.1898 43.4208 41.729 43.2137C42.2679 43.0068 42.8197 42.9032 43.3842 42.9032C43.7632 42.9032 44.1316 42.9561 44.4898 43.0617C44.8478 43.1673 45.1826 43.3003 45.4943 43.4608C45.8058 43.6214 46.0944 43.7987 46.3598 43.9929C46.6251 44.1873 46.8567 44.3711 47.0547 44.5441C47.2526 44.7174 47.4126 44.8735 47.5349 45.0129C47.6568 45.1523 47.7349 45.2432 47.7686 45.2854L46.8336 46.2864C46.5892 46.4891 46.3618 46.6455 46.1513 46.7552C45.9407 46.865 45.7047 46.9199 45.4438 46.9199C45.2584 46.9199 45.1109 46.8968 45.0014 46.8502C44.8919 46.8039 44.7782 46.7531 44.6603 46.6982C44.5423 46.6433 44.4054 46.5927 44.2497 46.5461C44.0938 46.4998 43.8771 46.4765 43.5989 46.4765C43.3799 46.4765 43.201 46.5441 43.0621 46.6792C42.923 46.8143 42.8535 46.9706 42.8535 47.148C42.8535 47.241 42.8661 47.3275 42.8914 47.4077C42.9166 47.4881 42.9672 47.5493 43.0429 47.5914C43.1694 47.6674 43.2851 47.7245 43.3904 47.7626C43.4958 47.8005 43.6095 47.8343 43.7316 47.8638C43.8536 47.8935 43.997 47.9295 44.1613 47.9715C44.3255 48.0139 44.5297 48.0729 44.774 48.1489C45.2542 48.3011 45.7006 48.4656 46.1134 48.6431C46.526 48.8206 46.8842 49.0466 47.1873 49.3209C47.4906 49.5956 47.7284 49.9419 47.9012 50.36C48.0738 50.7781 48.1603 51.3039 48.1603 51.9375C48.1603 52.5542 48.0403 53.1412 47.8002 53.6988C47.56 54.2563 47.221 54.7441 46.7831 55.1622C46.3449 55.5804 45.8248 55.9141 45.2226 56.1632C44.6203 56.4123 43.9611 56.537 43.2452 56.537C42.7566 56.537 42.2723 56.4524 41.7922 56.2835C41.312 56.1147 40.8528 55.8739 40.4149 55.5613C39.9769 55.2489 39.5703 54.8665 39.1956 54.4146C38.8207 53.9628 38.4943 53.4538 38.2163 52.8877L39.6315 52.1529Z" fill="white"/>
<path d="M56.6461 47.2661C56.3006 47.2661 55.9658 47.3316 55.6416 47.4625C55.3173 47.5935 55.0267 47.7793 54.7698 48.02C54.5128 48.2607 54.3065 48.5458 54.1508 48.8752C53.9948 49.2047 53.917 49.5637 53.917 49.9523C53.917 50.3495 53.9948 50.7125 54.1508 51.0419C54.3065 51.3714 54.5128 51.6545 54.7698 51.8909C55.0267 52.1275 55.3173 52.3134 55.6416 52.4484C55.9658 52.5835 56.3006 52.6511 56.6461 52.6511C56.8988 52.6511 57.1305 52.6195 57.341 52.5562C57.5515 52.4927 57.7601 52.4231 57.9666 52.347C58.1729 52.271 58.3877 52.2014 58.6109 52.138C58.834 52.0745 59.0848 52.0429 59.3627 52.0429C59.7501 52.0429 60.0956 52.1211 60.3989 52.2774C60.7021 52.4338 60.98 52.6384 61.2328 52.892L62.2688 53.9435C61.8646 54.3743 61.439 54.7671 60.9926 55.1219C60.5462 55.4767 60.0829 55.7766 59.6028 56.0216C59.1226 56.2666 58.634 56.4567 58.1371 56.5918C57.6399 56.7268 57.143 56.7945 56.6461 56.7945C55.7027 56.7945 54.816 56.6148 53.9864 56.256C53.1566 55.897 52.4301 55.407 51.8069 54.7861C51.1833 54.1653 50.6906 53.4389 50.3285 52.6067C49.9662 51.7749 49.7852 50.8899 49.7852 49.9523C49.7852 49.0146 49.9662 48.1298 50.3285 47.2978C50.6906 46.4658 51.1833 45.7393 51.8069 45.1184C52.4301 44.4976 53.1566 44.0077 53.9864 43.6485C54.816 43.2897 55.7027 43.1101 56.6461 43.1101C57.143 43.1101 57.6399 43.1777 58.1371 43.3128C58.634 43.4479 59.1226 43.638 59.6028 43.883C60.0829 44.1282 60.5462 44.4279 60.9926 44.7826C61.439 45.1374 61.8646 45.5302 62.2688 45.9609L61.2328 47.0253C60.7188 47.5575 60.0745 47.8235 59.2995 47.8235C59.0384 47.8235 58.7921 47.794 58.5604 47.7348C58.3286 47.6758 58.1075 47.6126 57.897 47.5447C57.6864 47.4773 57.4779 47.4139 57.2716 47.3546C57.065 47.2957 56.8567 47.2661 56.6461 47.2661Z" fill="white"/>
<path d="M63.292 49.9523C63.292 49.0146 63.4709 48.1299 63.829 47.2978C64.1869 46.4658 64.6757 45.7393 65.2947 45.1184C65.9139 44.4975 66.6383 44.0077 67.468 43.6486C68.2975 43.2896 69.18 43.1101 70.1151 43.1101C71.0501 43.1101 71.9324 43.2896 72.7621 43.6486C73.5918 44.0077 74.3163 44.4975 74.9354 45.1184C75.5545 45.7393 76.043 46.4658 76.4011 47.2978C76.7589 48.1299 76.9381 49.0146 76.9381 49.9523C76.9381 50.8899 76.7589 51.7749 76.4011 52.6068C76.043 53.4389 75.5545 54.1652 74.9354 54.7861C74.3163 55.407 73.5918 55.897 72.7621 56.256C71.9324 56.6149 71.0501 56.7945 70.1151 56.7945C69.18 56.7945 68.2975 56.6149 67.468 56.256C66.6383 55.897 65.9139 55.407 65.2947 54.7861C64.6757 54.1652 64.1869 53.4389 63.829 52.6068C63.4709 51.7749 63.292 50.8899 63.292 49.9523ZM67.4364 49.9649C67.4364 50.3282 67.506 50.6725 67.6449 50.9975C67.7839 51.3229 67.9733 51.6058 68.2135 51.8465C68.4536 52.0873 68.7356 52.2774 69.0601 52.4167C69.3842 52.5562 69.7274 52.6258 70.0898 52.6258C70.4518 52.6258 70.7952 52.5562 71.1195 52.4167C71.4437 52.2774 71.7279 52.0873 71.9724 51.8465C72.2167 51.6058 72.4084 51.3229 72.5474 50.9975C72.6863 50.6725 72.7559 50.3282 72.7559 49.9649C72.7559 49.6018 72.6863 49.2576 72.5474 48.9323C72.4084 48.6072 72.2167 48.3221 71.9724 48.077C71.7279 47.8321 71.4437 47.6398 71.1195 47.5006C70.7952 47.3611 70.4518 47.2914 70.0898 47.2914C69.7274 47.2914 69.3842 47.3611 69.0601 47.5006C68.7356 47.6398 68.4536 47.8321 68.2135 48.077C67.9733 48.3221 67.7839 48.6072 67.6449 48.9323C67.506 49.2576 67.4364 49.6018 67.4364 49.9649Z" fill="white"/>
<path d="M74.6126 61.3635H75.0223V58.0095H74.6126V61.3635ZM68.5587 59.9657C68.3295 59.9947 68.1443 60.0715 68.0031 60.1962C67.862 60.3207 67.7914 60.4964 67.7914 60.7229C67.7914 60.9297 67.8631 61.1018 68.0066 61.2393C68.1501 61.377 68.3349 61.4458 68.5609 61.4458C68.7492 61.4458 68.9215 61.4054 69.0778 61.3248C69.2341 61.2441 69.354 61.1491 69.4376 61.0394C69.4512 61.1368 69.4747 61.2122 69.5082 61.2654C69.5719 61.3658 69.6743 61.4161 69.8155 61.4161C69.8732 61.4161 69.9187 61.4138 69.9521 61.4093C69.9855 61.4047 70.034 61.3933 70.0978 61.3749V61.0713C70.072 61.0759 70.0477 61.0794 70.025 61.0816C70.0022 61.0839 69.9818 61.085 69.9636 61.085C69.9073 61.085 69.8705 61.0722 69.8531 61.0462C69.8356 61.0204 69.8269 60.9862 69.8269 60.9436V59.5348C69.8269 59.3034 69.7382 59.1329 69.5608 59.0233C69.3819 58.9137 69.1492 58.8589 68.8626 58.8589C68.6155 58.8589 68.3984 58.918 68.2111 59.0364C68.0239 59.1547 67.9265 59.365 67.919 59.6672H68.3015C68.3166 59.5402 68.3491 59.4446 68.3991 59.3803C68.4885 59.2641 68.64 59.2059 68.8536 59.2059C69.0383 59.2059 69.1804 59.2376 69.2796 59.3011C69.3788 59.3645 69.4285 59.4665 69.4285 59.607C69.4285 59.6758 69.4194 59.7285 69.4012 59.7652C69.3692 59.832 69.3063 59.8715 69.2122 59.8837L68.5587 59.9657ZM68.2195 60.7138C68.2195 60.5574 68.2828 60.4434 68.4095 60.3721C68.4843 60.3295 68.596 60.2984 68.7445 60.2786L68.9921 60.2467C69.0679 60.2376 69.1452 60.2223 69.224 60.201C69.3027 60.1796 69.3671 60.1528 69.4171 60.1208V60.4513C69.4171 60.7036 69.3032 60.8852 69.0756 60.9962C68.9404 61.063 68.8008 61.0964 68.6566 61.0964C68.5382 61.0964 68.4358 61.0623 68.3492 60.9939C68.2627 60.9256 68.2195 60.8322 68.2195 60.7138ZM61.2094 61.3635H61.6192V60.0828C61.6192 59.9229 61.6295 59.8 61.6499 59.714C61.6704 59.628 61.7148 59.5446 61.7831 59.464C61.8681 59.3635 61.9668 59.2965 62.0791 59.2631C62.1413 59.2433 62.221 59.2333 62.3182 59.2333C62.5094 59.2333 62.6415 59.3095 62.7143 59.4617C62.7584 59.553 62.7804 59.6733 62.7804 59.8225V61.3635H63.197V59.795C63.197 59.5485 63.1636 59.359 63.0968 59.2265C62.9753 58.9845 62.7416 58.8634 62.3956 58.8634C62.2377 58.8634 62.0943 58.8947 61.9653 58.957C61.8363 59.0196 61.7141 59.1223 61.5987 59.2653V58.9183H61.2094V61.3635ZM55.4889 58.8475C55.1408 58.8475 54.8635 58.9692 54.6569 59.2125C54.4505 59.4558 54.3473 59.7827 54.3473 60.1934C54.3473 60.5766 54.4452 60.8819 54.6411 61.1094C54.8372 61.3367 55.1016 61.4503 55.4347 61.4503C55.8341 61.4503 56.1288 61.3218 56.3186 61.0648C56.5086 60.8079 56.6036 60.4824 56.6036 60.0884C56.6036 59.681 56.4958 59.3722 56.2802 59.1624C56.0647 58.9525 55.8009 58.8475 55.4889 58.8475ZM55.4731 61.0964C55.2285 61.0964 55.0498 61.0097 54.9373 60.8364C54.8247 60.6631 54.7685 60.4465 54.7685 60.1866C54.7685 59.9159 54.8247 59.6849 54.9373 59.4934C55.0498 59.3017 55.2299 59.2059 55.4777 59.2059C55.7568 59.2059 55.9534 59.3185 56.0674 59.5434C56.1395 59.6864 56.1755 59.8719 56.1755 60.0999C56.1755 60.3523 56.1256 60.5815 56.0258 60.7875C55.926 60.9934 55.7418 61.0964 55.4731 61.0964ZM49.3749 58.4753H49.7915V58.0095H49.3749V58.4753ZM49.3749 61.3635H49.7915V58.9297H49.3749V61.3635ZM44.0573 58.9183H43.7271V59.2539H44.0573V60.8727C44.0573 61.0294 44.0914 61.157 44.1598 61.2552C44.2281 61.3533 44.3578 61.4024 44.5491 61.4024C44.6083 61.4024 44.6632 61.3993 44.7141 61.3933C44.765 61.3872 44.8139 61.3772 44.8611 61.3635V61.0371C44.8307 61.0412 44.8041 61.0437 44.7814 61.0447C44.7585 61.0458 44.7373 61.0462 44.7176 61.0462C44.6431 61.0462 44.5901 61.0378 44.5582 61.0211C44.5005 60.9922 44.4716 60.9351 44.4716 60.8499V59.2539H44.8611V58.9183H44.4716V58.2356H44.0573V58.9183ZM37.9329 59.9657C37.7036 59.9947 37.5185 60.0715 37.3774 60.1962C37.2362 60.3207 37.1656 60.4964 37.1656 60.7229C37.1656 60.9297 37.2374 61.1018 37.3807 61.2393C37.5242 61.377 37.709 61.4458 37.9352 61.4458C38.1233 61.4458 38.2957 61.4054 38.452 61.3248C38.6083 61.2441 38.7282 61.1491 38.8117 61.0394C38.8254 61.1368 38.8489 61.2122 38.8823 61.2654C38.946 61.3658 39.0486 61.4161 39.1897 61.4161C39.2474 61.4161 39.2928 61.4138 39.3263 61.4093C39.3596 61.4047 39.4082 61.3933 39.472 61.3749V61.0713C39.4461 61.0759 39.422 61.0794 39.3991 61.0816C39.3764 61.0839 39.3559 61.085 39.3377 61.085C39.2815 61.085 39.2447 61.0722 39.2272 61.0462C39.2098 61.0204 39.201 60.9862 39.201 60.9436V59.5348C39.201 59.3034 39.1124 59.1329 38.935 59.0233C38.7561 58.9137 38.5233 58.8589 38.2368 58.8589C37.9898 58.8589 37.7726 58.918 37.5853 59.0364C37.3981 59.1547 37.3007 59.365 37.2931 59.6672H37.6756C37.6907 59.5402 37.7233 59.4446 37.7733 59.3803C37.8627 59.2641 38.0142 59.2059 38.2278 59.2059C38.4125 59.2059 38.5545 59.2376 38.6538 59.3011C38.753 59.3645 38.8026 59.4665 38.8026 59.607C38.8026 59.6758 38.7935 59.7285 38.7753 59.7652C38.7435 59.832 38.6804 59.8715 38.5864 59.8837L37.9329 59.9657ZM37.5936 60.7138C37.5936 60.5574 37.657 60.4434 37.7837 60.3721C37.8586 60.3295 37.9702 60.2984 38.1187 60.2786L38.3663 60.2467C38.442 60.2376 38.5194 60.2223 38.5981 60.201C38.6769 60.1796 38.7412 60.1528 38.7913 60.1208V60.4513C38.7913 60.7036 38.6774 60.8852 38.4497 60.9962C38.3146 61.063 38.1749 61.0964 38.0308 61.0964C37.9123 61.0964 37.8099 61.0623 37.7234 60.9939C37.6369 60.9256 37.5936 60.8322 37.5936 60.7138ZM30.5835 61.3635H30.9933V60.0828C30.9933 59.9229 31.0036 59.8 31.0241 59.714C31.0445 59.628 31.0889 59.5446 31.1573 59.464C31.2422 59.3635 31.341 59.2965 31.4532 59.2631C31.5155 59.2433 31.5952 59.2333 31.6923 59.2333C31.8836 59.2333 32.0156 59.3095 32.0885 59.4617C32.1325 59.553 32.1545 59.6733 32.1545 59.8225V61.3635H32.5711V59.795C32.5711 59.5485 32.5377 59.359 32.471 59.2265C32.3495 58.9845 32.1158 58.8634 31.7698 58.8634C31.6118 58.8634 31.4684 58.8947 31.3394 58.957C31.2104 59.0196 31.0882 59.1223 30.9728 59.2653V58.9183H30.5835V61.3635ZM24.9388 61.3635H25.3487V59.9571C25.3487 59.7836 25.4041 59.6303 25.5149 59.4971C25.6257 59.3639 25.7843 59.2973 25.9908 59.2973C26.015 59.2973 26.0375 59.2981 26.0579 59.2996C26.0784 59.3011 26.1008 59.3041 26.1251 59.3087V58.8749C26.081 58.8704 26.0499 58.8673 26.0317 58.8658C26.0135 58.8643 26.0006 58.8634 25.9931 58.8634C25.8305 58.8634 25.6872 58.9225 25.5627 59.0404C25.4382 59.1584 25.3601 59.2585 25.3283 59.3407V58.9183H24.9388V61.3635ZM18.5412 59.9457C18.5488 59.7357 18.6158 59.5625 18.7422 59.4263C18.8685 59.2901 19.0251 59.2219 19.2118 59.2219C19.4721 59.2219 19.658 59.3209 19.7693 59.5188C19.8295 59.6253 19.868 59.7676 19.8845 59.9457H18.5412ZM19.2376 58.8634C18.8968 58.8634 18.6207 58.9861 18.4095 59.231C18.1982 59.4762 18.0927 59.795 18.0927 60.1878C18.0927 60.5866 18.1975 60.8967 18.4072 61.1181C18.6169 61.3397 18.8725 61.4503 19.1742 61.4503C19.2977 61.4503 19.4084 61.4382 19.5064 61.4138C19.6886 61.3712 19.8415 61.289 19.965 61.1672C20.0389 61.0972 20.1058 61.007 20.1657 60.8967C20.2257 60.7863 20.261 60.6863 20.2716 60.5964H19.8686C19.8391 60.705 19.7889 60.8006 19.7181 60.8831C19.5916 61.0253 19.4222 61.0964 19.2099 61.0964C18.9825 61.0964 18.8146 61.0213 18.7061 60.8709C18.5976 60.7206 18.5397 60.521 18.5321 60.2723H20.3057C20.3057 60.0256 20.2937 59.8461 20.2695 59.7334C20.2423 59.569 20.1881 59.4251 20.1066 59.3018C20.0221 59.1725 19.8992 59.0671 19.7378 58.9856C19.5763 58.9042 19.4096 58.8634 19.2376 58.8634ZM12.914 58.9183H12.5838V59.2539H12.914V60.8727C12.914 61.0294 12.9481 61.157 13.0164 61.2552C13.0846 61.3533 13.2145 61.4024 13.4057 61.4024C13.4649 61.4024 13.5199 61.3993 13.5708 61.3933C13.6216 61.3872 13.6706 61.3772 13.7176 61.3635V61.0371C13.6872 61.0412 13.6608 61.0437 13.6379 61.0447C13.6152 61.0458 13.5939 61.0462 13.5742 61.0462C13.4998 61.0462 13.4467 61.0378 13.4148 61.0211C13.3571 60.9922 13.3283 60.9351 13.3283 60.8499V59.2539H13.7176V58.9183H13.3283V58.2356H12.914V58.9183ZM6.13603 61.3635H6.54593V60.0828C6.54593 59.9229 6.5561 59.8 6.57657 59.714C6.59715 59.628 6.64155 59.5446 6.70977 59.464C6.79474 59.3635 6.89347 59.2965 7.00573 59.2631C7.06796 59.2433 7.14767 59.2333 7.24485 59.2333C7.43609 59.2333 7.5681 59.3095 7.64098 59.4617C7.68502 59.553 7.70704 59.6733 7.70704 59.8225V61.3635H8.12364V59.795C8.12364 59.5485 8.09025 59.359 8.02347 59.2265C7.90212 58.9845 7.66839 58.8634 7.32228 58.8634C7.16442 58.8634 7.02093 58.8947 6.89192 58.957C6.76291 59.0196 6.64072 59.1223 6.52535 59.2653V58.9183H6.13603V61.3635ZM0.997559 58.4753H1.41416V58.0095H0.997559V58.4753ZM0.997559 61.3635H1.41416V58.9297H0.997559V61.3635Z" fill="white"/>
<path d="M76.6284 42.8601V41.4105H77.2427C77.3972 41.4105 77.5094 41.4236 77.5794 41.4496C77.6494 41.4757 77.7054 41.5219 77.7475 41.5885C77.7896 41.6551 77.8106 41.7312 77.8106 41.8169C77.8106 41.9256 77.7788 42.0155 77.715 42.0863C77.6512 42.1573 77.5559 42.2019 77.4291 42.2203C77.4921 42.2572 77.5443 42.2978 77.5854 42.3419C77.6264 42.3861 77.6818 42.4645 77.7515 42.5773L77.928 42.8601H77.5789L77.3679 42.5447C77.293 42.4318 77.2418 42.3609 77.2141 42.3315C77.1865 42.3022 77.1573 42.2821 77.1264 42.2713C77.0955 42.2603 77.0466 42.2549 76.9794 42.2549H76.9203V42.8601H76.6284ZM76.9203 42.0236H77.1362C77.2762 42.0236 77.3637 42.0177 77.3985 42.0058C77.4334 41.9939 77.4607 41.9735 77.4803 41.9445C77.5 41.9154 77.51 41.8792 77.51 41.8357C77.51 41.7869 77.4969 41.7475 77.4709 41.7175C77.445 41.6875 77.4084 41.6686 77.3611 41.6606C77.3374 41.6574 77.2664 41.6557 77.1481 41.6557H76.9203V42.0236Z" fill="#231F20"/>
<path d="M77.1819 43.6803C76.3324 43.6803 75.6411 42.9871 75.6411 42.1353C75.6411 41.2834 76.3324 40.5902 77.1819 40.5902C78.0313 40.5902 78.7226 41.2834 78.7226 42.1353C78.7226 42.9871 78.0313 43.6803 77.1819 43.6803ZM77.1819 40.8707C76.4864 40.8707 75.9208 41.438 75.9208 42.1353C75.9208 42.8327 76.4864 43.3998 77.1819 43.3998C77.8773 43.3998 78.4429 42.8327 78.4429 42.1353C78.4429 41.438 77.8773 40.8707 77.1819 40.8707Z" fill="#231F20"/>
</svg>
