<svg width="26" height="21" viewBox="0 0 26 21" fill="none" xmlns="http://www.w3.org/2000/svg">
<g clip-path="url(#clip0_14_6141)">
<path d="M20.5055 1.8125H20.5054C18.0774 1.8123 15.6376 2.43288 13.1238 3.07524L13.0916 3.08347C10.6119 3.7171 8.05919 4.36941 5.49453 4.36941C4.19615 4.36941 2.88968 4.20294 1.57822 3.78288L20.5055 1.8125ZM20.5055 1.8125C22.0261 1.8125 23.5352 2.05702 25.0396 2.69413C25.3064 2.80709 25.5001 3.10222 25.5004 3.44283V16.4546C25.5004 16.9195 25.131 17.2594 24.6903 17.2594C24.6039 17.2594 24.514 17.2461 24.4222 17.2167C23.1107 16.7966 21.8043 16.6302 20.5059 16.6302C17.941 16.6302 15.388 17.2826 12.908 17.9163L12.8764 17.9244C10.3625 18.5668 7.92255 19.1875 5.49453 19.1875C3.97391 19.1875 2.46489 18.943 0.96045 18.3055L0.96002 18.3053M20.5055 1.8125L0.96002 18.3053M0.96002 18.3053C0.693718 18.1928 0.5 17.8976 0.5 17.5576V4.54494C0.5 4.08006 0.869457 3.74023 1.31016 3.74023C1.39645 3.74023 1.48638 3.7535 1.57811 3.78285L0.96002 18.3053ZM2.07259 4.93835L1.45 4.78089V5.42309V7.9033V8.4033H1.95C3.45758 8.4033 4.70507 7.31663 4.98846 5.88655L5.09943 5.32658L4.52972 5.29036C3.66947 5.23568 2.8495 5.13483 2.07259 4.93835ZM1.45 17.1125V17.4617L1.77781 17.582C2.63991 17.8982 3.54 18.0918 4.4978 18.1695L5.06287 18.2154L5.03773 17.649C4.96416 15.9922 3.62403 14.6528 1.95 14.6528H1.45V15.1528V17.1125ZM23.9274 16.0616L24.55 16.2192V15.5769V13.2095V12.6414L23.9865 12.7135C22.6852 12.8801 21.6389 13.8494 21.3552 15.1219L21.2309 15.6798L21.8003 15.7289C22.5414 15.7928 23.2513 15.8906 23.9274 16.0616ZM23.9866 6.38868L24.55 6.46068V5.89271V3.88746V3.53814L24.222 3.41798C23.4596 3.13867 22.6663 2.96414 21.8384 2.87132L21.2659 2.80713L21.2829 3.38297C21.3288 4.9342 22.4866 6.19699 23.9866 6.38868ZM9.25 10.5C9.25 12.8563 10.8431 14.9375 13 14.9375C15.156 14.9375 16.75 12.8572 16.75 10.5C16.75 8.14325 15.1564 6.0625 13 6.0625C10.8436 6.0625 9.25 8.14325 9.25 10.5Z" stroke="#CD2128"/>
</g>
<defs>
<clipPath id="clip0_14_6141">
<rect width="26" height="21" fill="white"/>
</clipPath>
</defs>
</svg>
