<svg width="31" height="30" viewBox="0 0 31 30" fill="none" xmlns="http://www.w3.org/2000/svg">
<path d="M14.3887 1.42705C14.688 0.505742 15.9914 0.50574 16.2908 1.42705L19.1565 10.2467C19.2903 10.6587 19.6743 10.9377 20.1075 10.9377H29.3811C30.3498 10.9377 30.7526 12.1773 29.9688 12.7467L22.4664 18.1976C22.1159 18.4522 21.9692 18.9036 22.1031 19.3156L24.9688 28.1353C25.2682 29.0566 24.2137 29.8227 23.43 29.2533L15.9275 23.8024C15.577 23.5478 15.1024 23.5478 14.7519 23.8024L7.24949 29.2533C6.46577 29.8227 5.41129 29.0566 5.71064 28.1353L8.57632 19.3156C8.7102 18.9036 8.56354 18.4522 8.21305 18.1976L0.710604 12.7467C-0.0731096 12.1773 0.329665 10.9377 1.29839 10.9377H10.5719C11.0052 10.9377 11.3891 10.6587 11.523 10.2467L14.3887 1.42705Z" fill="#14DA14"/>
</svg>
