<svg width="114" height="19" viewBox="0 0 114 19" fill="none" xmlns="http://www.w3.org/2000/svg">
<path d="M9.5 0L11.6329 6.56434H18.535L12.9511 10.6213L15.084 17.1857L9.5 13.1287L3.91604 17.1857L6.04892 10.6213L0.464963 6.56434H7.36712L9.5 0Z" fill="#E41F4E"/>
<path d="M33.0781 0L35.211 6.56434H42.1132L36.5292 10.6213L38.6621 17.1857L33.0781 13.1287L27.4942 17.1857L29.627 10.6213L24.0431 6.56434H30.9452L33.0781 0Z" fill="#E41F4E"/>
<path d="M56.6562 0L58.7891 6.56434H65.6913L60.1073 10.6213L62.2402 17.1857L56.6562 13.1287L51.0723 17.1857L53.2052 10.6213L47.6212 6.56434H54.5234L56.6562 0Z" fill="#E41F4E"/>
<path d="M80.2383 1.61804L81.8956 6.71885L82.0079 7.06434H82.3712H87.7345L83.3955 10.2168L83.1016 10.4303L83.2138 10.7758L84.8712 15.8766L80.5322 12.7242L80.2383 12.5106L79.9444 12.7242L75.6054 15.8766L77.2627 10.7758L77.375 10.4303L77.0811 10.2168L72.7421 7.06434H78.1054H78.4687L78.5809 6.71885L80.2383 1.61804Z" stroke="black"/>
<path d="M103.816 1.61804L105.474 6.71885L105.586 7.06434H105.949H111.313L106.974 10.2168L106.68 10.4303L106.792 10.7758L108.449 15.8766L104.11 12.7242L103.816 12.5106L103.523 12.7242L99.1835 15.8766L100.841 10.7758L100.953 10.4303L100.659 10.2168L96.3202 7.06434H101.684H102.047L102.159 6.71885L103.816 1.61804Z" stroke="black"/>
</svg>
