<svg width="33" height="33" viewBox="0 0 33 33" fill="none" xmlns="http://www.w3.org/2000/svg">
<circle cx="16.1667" cy="16.1665" r="16" fill="white"/>
<path fill-rule="evenodd" clip-rule="evenodd" d="M26.5 9.91117C25.8015 10.2215 25.0498 10.4305 24.2613 10.5248C25.0662 10.0423 25.6843 9.27851 25.975 8.36848C25.2227 8.81558 24.3873 9.13919 23.5001 9.31461C22.7889 8.5572 21.775 8.0835 20.6547 8.0835C18.5022 8.0835 16.7568 9.82885 16.7568 11.9814C16.7568 12.2866 16.7916 12.5843 16.8581 12.8699C13.6182 12.7078 10.7463 11.1556 8.82358 8.79721C8.48793 9.37288 8.29605 10.0423 8.29605 10.7566C8.29605 12.1087 8.98317 13.3018 10.03 14.001C9.39037 13.9807 8.79001 13.8053 8.26375 13.5133V13.5621C8.26375 15.4512 9.60822 17.0262 11.3903 17.3853C11.0635 17.4739 10.719 17.5221 10.3637 17.5221C10.1123 17.5221 9.86787 17.4974 9.62976 17.4518C10.1256 19.0002 11.5657 20.1274 13.2712 20.1591C11.9375 21.204 10.2567 21.8278 8.4303 21.8278C8.11492 21.8278 7.80461 21.8094 7.5 21.7727C9.22509 22.8784 11.2738 23.5244 13.4751 23.5244C20.6446 23.5244 24.5653 17.5848 24.5653 12.4342C24.5653 12.2651 24.5621 12.0967 24.5539 11.9301C25.3164 11.3791 25.9775 10.6927 26.5 9.91117Z" fill="#CD2128"/>
</svg>
