<svg width="26" height="21" viewBox="0 0 26 21" fill="none" xmlns="http://www.w3.org/2000/svg">
<rect x="0.5" y="0.5" width="25" height="20" rx="1.5" stroke="#CD2128"/>
<path d="M4.888 11.952C4.888 14.076 6.376 15.084 8.128 15.084C9.868 15.084 11.404 14.076 11.404 11.952V6.66H10.036V11.976C10.036 13.272 9.304 13.884 8.14 13.884C6.988 13.884 6.256 13.272 6.256 11.976V6.66H4.888V11.952ZM14.5532 10.5V7.776H16.0652C17.1332 7.776 17.6132 8.28 17.6132 9.144C17.6132 9.984 17.1332 10.5 16.0652 10.5H14.5532ZM19.0172 9.144C19.0172 7.788 18.0452 6.66 16.0652 6.66H13.1852V15H14.5532V11.616H16.0652C18.2372 11.616 19.0172 10.332 19.0172 9.144ZM20.3219 15H21.6899V6.66H20.3219V15Z" fill="#CD2128"/>
</svg>
