<svg width="46" height="15" viewBox="0 0 46 15" fill="none" xmlns="http://www.w3.org/2000/svg">
<path fill-rule="evenodd" clip-rule="evenodd" d="M11.5005 14.8832H7.51947L4.5342 3.24662C4.3925 2.71134 4.09165 2.23812 3.6491 2.01509C2.54466 1.45459 1.32765 1.00852 0 0.783549V0.335541H6.41309C7.29819 0.335541 7.96202 1.00852 8.07266 1.79011L9.62158 10.184L13.6007 0.335541H17.471L11.5005 14.8832ZM19.6838 14.8832H15.9241L19.02 0.335541H22.7797L19.6838 14.8832ZM27.6439 4.36565C27.7545 3.58212 28.4183 3.13412 29.1928 3.13412C30.4098 3.02163 31.7355 3.2466 32.8419 3.80516L33.5057 0.672982C32.3993 0.224974 31.1823 0 30.0779 0C26.4288 0 23.7735 2.01507 23.7735 4.81172C23.7735 6.93928 25.6543 8.05639 26.982 8.72937C28.4183 9.40041 28.9715 9.84842 28.8609 10.5195C28.8609 11.526 27.7545 11.974 26.6501 11.974C25.3224 11.974 23.9948 11.6385 22.7797 11.078L22.1159 14.2121C23.4435 14.7707 24.8799 14.9957 26.2075 14.9957C30.2992 15.1062 32.8419 13.0931 32.8419 10.0715C32.8419 6.26629 27.6439 6.04326 27.6439 4.36565ZM46 14.8832L43.0147 0.335541H39.8082C39.1444 0.335541 38.4805 0.783549 38.2593 1.45459L32.7313 14.8832H36.6016L37.3742 12.7576H42.1296L42.5722 14.8832H46ZM40.3614 4.25323L41.4658 9.73599H38.3699L40.3614 4.25323Z" fill="#172B85"/>
</svg>
