<svg width="92" height="92" viewBox="0 0 92 92" fill="none" xmlns="http://www.w3.org/2000/svg">
<circle cx="46" cy="46" r="46" fill="#05CC47"/>
<g clip-path="url(#clip0_106_5707)">
<path d="M21.208 72C20.916 72 20.632 71.8846 20.4213 71.6715C20.1436 71.3906 20.0365 70.9828 20.1408 70.6015L23.5213 58.2569C21.4167 54.4511 20.307 50.1458 20.3086 45.7755C20.3146 31.5627 31.8808 20 46.0924 20C52.9855 20.0028 59.4625 22.6878 64.3307 27.5597C69.1982 32.4319 71.8777 38.9085 71.8757 45.7961C71.8694 60.0093 60.3032 71.5727 46.0924 71.5727C46.0924 71.5727 46.0817 71.5727 46.0813 71.5727C41.9303 71.5711 37.815 70.5595 34.1509 68.6433L21.4885 71.9639C21.3957 71.9881 21.3012 72 21.208 72Z" fill="#E5E5E5"/>
<path d="M21.208 70.8934L24.7087 58.1097C22.5493 54.3681 21.4135 50.1239 21.4151 45.7758C21.4207 32.1732 32.4902 21.1065 46.0924 21.1065C52.6932 21.1093 58.8889 23.6785 63.5481 28.3416C68.2069 33.0047 70.7718 39.2032 70.7694 45.7956C70.7634 59.3978 59.6923 70.4661 46.0924 70.4661C46.0917 70.4661 46.0928 70.4661 46.0924 70.4661H46.0817C41.9518 70.4645 37.894 69.4287 34.2898 67.4629L21.208 70.8934ZM34.8956 62.9969L35.645 63.4409C38.7934 65.3095 42.4033 66.2977 46.0845 66.2997H46.0924C57.3968 66.2997 66.5978 57.1004 66.6025 45.794C66.6045 40.3148 64.4733 35.1625 60.6008 31.2869C56.728 27.4113 51.5788 25.2757 46.1 25.2733C34.7865 25.2733 25.5859 34.4714 25.5815 45.7774C25.58 49.6518 26.6638 53.4247 28.7173 56.6898L29.2053 57.4658L27.1328 65.0322L34.8956 62.9969Z" fill="white"/>
<path d="M22.0659 70.0324L25.4456 57.6906C23.3604 54.0788 22.2643 49.981 22.2655 45.784C22.2706 32.6523 32.9573 21.9688 46.0878 21.9688C52.4608 21.9715 58.4423 24.4519 62.9392 28.9536C67.4373 33.4552 69.9129 39.4391 69.9105 45.8026C69.905 58.9347 59.2179 69.6194 46.089 69.6194C46.0878 69.6194 46.0894 69.6194 46.089 69.6194H46.0783C42.0916 69.6178 38.1739 68.6173 34.6946 66.7209L22.0659 70.0324Z" fill="#05CC47"/>
<path d="M21.208 70.8934L24.7087 58.1097C22.5493 54.3681 21.4135 50.1239 21.4151 45.7758C21.4207 32.1732 32.4902 21.1065 46.0924 21.1065C52.6932 21.1093 58.8889 23.6785 63.5481 28.3416C68.2069 33.0047 70.7718 39.2032 70.7694 45.7956C70.7634 59.3978 59.6923 70.4661 46.0924 70.4661C46.0917 70.4661 46.0928 70.4661 46.0924 70.4661H46.0817C41.9518 70.4645 37.894 69.4287 34.2898 67.4629L21.208 70.8934ZM34.8956 62.9969L35.645 63.4409C38.7934 65.3095 42.4033 66.2977 46.0845 66.2997H46.0924C57.3968 66.2997 66.5978 57.1004 66.6025 45.794C66.6045 40.3148 64.4733 35.1625 60.6008 31.2869C56.728 27.4113 51.5788 25.2757 46.1 25.2733C34.7865 25.2733 25.5859 34.4714 25.5815 45.7774C25.58 49.6518 26.6638 53.4247 28.7173 56.6898L29.2053 57.4658L27.1328 65.0322L34.8956 62.9969Z" fill="white"/>
<path fill-rule="evenodd" clip-rule="evenodd" d="M39.9251 35.4628C39.4633 34.436 38.9769 34.4154 38.5373 34.3975C38.1779 34.3821 37.7665 34.3828 37.3559 34.3828C36.9448 34.3828 36.2768 34.5376 35.7118 35.1545C35.1465 35.7714 33.5532 37.2631 33.5532 40.2969C33.5532 43.3311 35.763 46.2625 36.0713 46.6744C36.3795 47.0858 40.3369 53.5104 46.604 55.982C51.8126 58.0363 52.8723 57.6277 54.0029 57.5249C55.1336 57.4222 57.6509 56.0332 58.1646 54.5935C58.6788 53.1538 58.6788 51.9199 58.5244 51.6617C58.3701 51.405 57.9591 51.2506 57.3426 50.9424C56.7261 50.6341 53.6947 49.142 53.1294 48.9365C52.564 48.7306 52.153 48.6283 51.742 49.2456C51.3306 49.8621 50.1499 51.2506 49.7901 51.6617C49.4303 52.0739 49.0704 52.1254 48.4539 51.8168C47.8374 51.5077 45.8514 50.8571 43.4956 48.7564C41.6627 47.1223 40.4249 45.1037 40.0651 44.4864C39.7057 43.8699 40.0592 43.5652 40.3361 43.2284C40.8348 42.6218 41.6715 41.5311 41.877 41.1201C42.0825 40.7083 41.9797 40.3485 41.8258 40.0398C41.6715 39.7316 40.4729 36.6823 39.9251 35.4628Z" fill="white"/>
</g>
<defs>
<clipPath id="clip0_106_5707">
<rect width="52" height="52" fill="white" transform="translate(20 20)"/>
</clipPath>
</defs>
</svg>
