<svg width="33" height="33" viewBox="0 0 33 33" fill="none" xmlns="http://www.w3.org/2000/svg">
<circle cx="16.25" cy="16.1665" r="16" fill="white"/>
<g clip-path="url(#clip0_106_18707)">
<path d="M7.203 25.5C7.09351 25.5 6.98699 25.4578 6.90799 25.38C6.80385 25.2773 6.76368 25.1283 6.8028 24.989L8.0705 20.4785C7.28126 19.0879 6.86514 17.5148 6.86574 15.918C6.86797 10.7248 11.2053 6.5 16.5346 6.5C19.1196 6.50101 21.5484 7.48209 23.374 9.26218C25.1993 11.0424 26.2041 13.4089 26.2034 15.9255C26.201 21.1188 21.8637 25.3439 16.5346 25.3439C16.5346 25.3439 16.5306 25.3439 16.5305 25.3439C14.9739 25.3433 13.4306 24.9737 12.0566 24.2735L7.30819 25.4868C7.27337 25.4957 7.23797 25.5 7.203 25.5V25.5Z" fill="white"/>
<path d="M7.20312 25.0957L8.5159 20.4247C7.70613 19.0576 7.28019 17.5068 7.28078 15.9181C7.28287 10.9479 11.4339 6.9043 16.5348 6.9043C19.0101 6.90531 21.3335 7.84406 23.0807 9.5479C24.8277 11.2517 25.7895 13.5166 25.7886 15.9253C25.7864 20.8954 21.6347 24.9396 16.5348 24.9396C16.5345 24.9396 16.5349 24.9396 16.5348 24.9396H16.5308C14.982 24.939 13.4604 24.5605 12.1088 23.8422L7.20312 25.0957ZM12.336 22.2104L12.617 22.3726C13.7977 23.0554 15.1513 23.4165 16.5318 23.4172H16.5348C20.7739 23.4172 24.2243 20.0559 24.2261 15.9248C24.2268 13.9227 23.4276 12.0402 21.9754 10.6241C20.5231 9.20797 18.5922 8.42766 16.5376 8.42679C12.295 8.42679 8.84484 11.7876 8.8432 15.9187C8.84261 17.3343 9.24906 18.7129 10.0191 19.9059L10.2021 20.1894L9.42491 22.9541L12.336 22.2104Z" fill="white"/>
<path d="M7.5249 24.7814L8.7923 20.2719C8.01035 18.9522 7.59929 17.455 7.59974 15.9214C7.60167 11.1233 11.6092 7.21973 16.5331 7.21973C18.923 7.22074 21.1661 8.12702 22.8524 9.77187C24.5392 11.4167 25.4675 13.6031 25.4666 15.9283C25.4646 20.7265 21.4569 24.6305 16.5336 24.6305C16.5331 24.6305 16.5337 24.6305 16.5336 24.6305H16.5295C15.0345 24.63 13.5654 24.2644 12.2606 23.5715L7.5249 24.7814Z" fill="white"/>
<path d="M7.20312 25.0957L8.5159 20.4247C7.70613 19.0576 7.28019 17.5068 7.28078 15.9181C7.28287 10.9479 11.4339 6.9043 16.5348 6.9043C19.0101 6.90531 21.3335 7.84406 23.0807 9.5479C24.8277 11.2517 25.7895 13.5166 25.7886 15.9253C25.7864 20.8954 21.6347 24.9396 16.5348 24.9396C16.5345 24.9396 16.5349 24.9396 16.5348 24.9396H16.5308C14.982 24.939 13.4604 24.5605 12.1088 23.8422L7.20312 25.0957ZM12.336 22.2104L12.617 22.3726C13.7977 23.0554 15.1513 23.4165 16.5318 23.4172H16.5348C20.7739 23.4172 24.2243 20.0559 24.2261 15.9248C24.2268 13.9227 23.4276 12.0402 21.9754 10.6241C20.5231 9.20797 18.5922 8.42766 16.5376 8.42679C12.295 8.42679 8.84484 11.7876 8.8432 15.9187C8.84261 17.3343 9.24906 18.7129 10.0191 19.9059L10.2021 20.1894L9.42491 22.9541L12.336 22.2104Z" fill="#CD2128"/>
<path fill-rule="evenodd" clip-rule="evenodd" d="M14.222 12.15C14.0488 11.7748 13.8664 11.7673 13.7016 11.7607C13.5668 11.7551 13.4125 11.7554 13.2585 11.7554C13.1044 11.7554 12.8538 11.8119 12.642 12.0373C12.43 12.2627 11.8325 12.8078 11.8325 13.9163C11.8325 15.0249 12.6612 16.096 12.7768 16.2465C12.8924 16.3968 14.3764 18.7443 16.7266 19.6474C18.6798 20.398 19.0772 20.2487 19.5012 20.2111C19.9252 20.1736 20.8691 19.6661 21.0618 19.14C21.2546 18.614 21.2546 18.1632 21.1967 18.0688C21.1389 17.975 20.9847 17.9186 20.7535 17.806C20.5223 17.6933 19.3856 17.1481 19.1736 17.0731C18.9616 16.9978 18.8074 16.9604 18.6533 17.186C18.499 17.4112 18.0563 17.9186 17.9213 18.0688C17.7864 18.2194 17.6515 18.2382 17.4203 18.1255C17.1891 18.0125 16.4443 17.7748 15.5609 17.0072C14.8736 16.4102 14.4094 15.6726 14.2745 15.447C14.1397 15.2218 14.2722 15.1105 14.3761 14.9874C14.5631 14.7657 14.8769 14.3672 14.9539 14.2171C15.031 14.0666 14.9925 13.9351 14.9347 13.8223C14.8769 13.7097 14.4274 12.5956 14.222 12.15Z" fill="#CD2128"/>
</g>
<defs>
<clipPath id="clip0_106_18707">
<rect width="19.5" height="19" fill="white" transform="translate(6.75 6.5)"/>
</clipPath>
</defs>
</svg>
