<svg width="30" height="28" viewBox="0 0 30 28" fill="none" xmlns="http://www.w3.org/2000/svg">
<path d="M25.2217 0.5L28.0637 4.05858C26.9811 5.03766 25.9371 6.54393 24.9317 8.57741C23.9651 10.5732 23.4431 13.0962 23.3657 16.1464L29.3397 16.8808V27.5H17.7397V22.4728C17.7397 22.0209 17.7591 21.0795 17.7977 19.6485C17.8364 18.1799 17.8751 17.2008 17.9137 16.7113C17.9524 16.1841 18.0104 15.2992 18.0877 14.0565C18.1651 12.8138 18.2811 11.91 18.4357 11.3452C18.5904 10.7803 18.7837 9.98954 19.0157 8.9728C19.2477 7.95607 19.5377 7.14644 19.8857 6.54393C20.2724 5.94142 20.6977 5.24477 21.1617 4.45397C21.6644 3.66318 22.2444 2.96653 22.9017 2.36402C23.5977 1.72385 24.3711 1.10251 25.2217 0.5ZM8.16972 0.5L11.0117 4.05858C9.92906 5.03766 8.88506 6.54393 7.87972 8.57741C6.91306 10.5732 6.39106 13.0774 6.31372 16.09L11.9397 16.8808V27.5H0.339722V22.4728C0.339722 20.1757 0.359055 18.4247 0.397722 17.2197C0.436388 16.0146 0.591055 14.4707 0.861722 12.5879C1.13239 10.6674 1.51906 9.1046 2.02172 7.89958C2.56306 6.69456 3.33639 5.41423 4.34172 4.05858C5.38572 2.70293 6.66172 1.51674 8.16972 0.5Z" fill="#CD2128"/>
</svg>
